<?xml version="1.0" encoding="UTF-8" standalone="no"?>
<svg
   xmlns:dc="http://purl.org/dc/elements/1.1/"
   xmlns:cc="http://creativecommons.org/ns#"
   xmlns:rdf="http://www.w3.org/1999/02/22-rdf-syntax-ns#"
   xmlns:svg="http://www.w3.org/2000/svg"
   xmlns="http://www.w3.org/2000/svg"
   xmlns:sodipodi="http://sodipodi.sourceforge.net/DTD/sodipodi-0.dtd"
   xmlns:inkscape="http://www.inkscape.org/namespaces/inkscape"
   width="30.116957mm"
   height="30.118992mm"
   viewBox="0 0 30.116956 30.118991"
   version="1.1"
   id="svg427"
   inkscape:version="1.0 (4035a4f, 2020-05-01)"
   sodipodi:docname="favicon.svg">
  <defs
     id="defs421" />
  <sodipodi:namedview
     id="base"
     pagecolor="#ffffff"
     bordercolor="#666666"
     borderopacity="1.0"
     inkscape:pageopacity="0.0"
     inkscape:pageshadow="2"
     inkscape:zoom="3.6319979"
     inkscape:cx="25.226232"
     inkscape:cy="56.149969"
     inkscape:document-units="mm"
     inkscape:current-layer="layer1"
     inkscape:document-rotation="0"
     showgrid="false"
     fit-margin-top="0"
     fit-margin-left="0"
     fit-margin-right="0"
     fit-margin-bottom="0"
     inkscape:window-width="1252"
     inkscape:window-height="755"
     inkscape:window-x="0"
     inkscape:window-y="23"
     inkscape:window-maximized="0"
     showguides="true"
     inkscape:guide-bbox="true">
    <sodipodi:guide
       position="15.058437,-7.6740289"
       orientation="0,-1"
       id="guide1948" />
  </sodipodi:namedview>
  <metadata
     id="metadata424">
    <rdf:RDF>
      <cc:Work
         rdf:about="">
        <dc:format>image/svg+xml</dc:format>
        <dc:type
           rdf:resource="http://purl.org/dc/dcmitype/StillImage" />
        <dc:title />
      </cc:Work>
    </rdf:RDF>
  </metadata>
  <g
     inkscape:label="Layer 1"
     inkscape:groupmode="layer"
     id="layer1"
     transform="translate(-87.232584,-88.259709)">
    <g
       style="stroke-width:0.42881"
       transform="matrix(2.341905,0,0,2.322211,-58.93447,-109.3229)"
       id="g231">
      <g
         style="stroke:#c6e9af;stroke-width:0.24138;stroke-miterlimit:4;stroke-dasharray:none"
         id="g1099"
         transform="matrix(1.1440618,0,0,1.1440618,-93.322969,17.912811)">
        <path
           sodipodi:nodetypes="sssss"
           d="m 142.80994,67.930962 c 0,0.999774 -0.81048,1.81025 -1.81025,1.810251 -0.99977,-10e-7 -1.81025,-0.810477 -1.81025,-1.810251 0,-0.999774 0.81048,-1.810251 1.81025,-1.810252 0.99977,10e-7 1.81025,0.810478 1.81025,1.810252 z"
           style="fill:#ffffff;stroke:#c6e9af;stroke-width:0.353824;stroke-linejoin:round;stroke-miterlimit:4;stroke-dasharray:none;stroke-dashoffset:0;paint-order:markers fill stroke"
           id="path1082" />
      </g>
      <path
         style="display:inline;fill:#c6e9af;stroke:#447821;stroke-width:0.276153;stroke-linecap:round;stroke-linejoin:round;stroke-miterlimit:4;stroke-dasharray:none;stroke-opacity:1"
         d="m 64.102017,92.076808 0.247735,-0.428706 V 91.069 l 0.750505,-0.749859 2.149772,-0.575537 0.786691,-0.453804 1.083793,-1.082852 0.159219,-0.593699 0.759096,-0.43789 0.806278,-0.805577 1.729283,-0.997544 h 0.545043 v 0.276386 l -0.701619,0.404732 -0.304767,0.304498 h 0.206458 l 0.90874,-0.243287 0.288086,0.166184 -0.06979,0.26012 0.138946,0.138833 -0.254839,0.441023 0.100791,0.174526 -0.588814,0.339662 0.471125,0.126127 0.06498,0.242364 -0.117347,0.203088 0.12587,0.125771 -0.157663,0.157529 h -0.405147 l -0.03821,0.14286 h -0.595198 l -0.13477,0.13465 0.13358,0.498109 v 0.549183 l -0.16145,0.16133 v 0.501072 h -0.117289 l -0.235711,-0.23552 v 0.2576 l -0.100563,0.100529 -0.149483,-0.08623 -0.215965,0.373732 -0.123638,0.0331 -0.0834,0.311127 -0.245997,0.06585 -0.105253,-0.02817 -0.09381,0.162394 H 70.34626 l -0.198654,0.198492 h -0.234327 l 0.669779,1.159099 0.114464,0.426801 0.277412,0.277166 v 0.231727 l 0.369749,0.639886 -0.172273,0.09937 -0.627838,-0.36217 -0.375412,-0.100506 0.112919,0.420917 -0.347166,-0.346868 -0.393065,-0.226744 -0.196356,-0.19618 h -0.109143 l -0.247072,-0.142525 -0.314914,-0.08431 -0.289116,-0.166778 h -0.43122 l -0.115001,0.114901 -0.03661,-0.13682 h -0.201195 v -0.09365 l -0.237942,-0.0637 -0.370962,0.09932 -0.325874,0.3256 -0.123879,-0.07145 -0.08191,0.08178 0.102279,0.177088 -0.110516,-0.02958 -0.146326,-0.14619 0.06475,-0.241574 0.801427,-0.462302 -0.482954,-0.278596 -0.779061,-0.778389 h -0.57139 l -0.832968,0.223007 -0.131854,0.131735 z"
         id="path1766-0" />
    </g>
  </g>
</svg>
